<?xml version="1.0" encoding="UTF-8" standalone="no"?>
<svg
   xmlns:dc="http://purl.org/dc/elements/1.1/"
   xmlns:cc="http://creativecommons.org/ns#"
   xmlns:rdf="http://www.w3.org/1999/02/22-rdf-syntax-ns#"
   xmlns:svg="http://www.w3.org/2000/svg"
   xmlns="http://www.w3.org/2000/svg"
   xmlns:sodipodi="http://sodipodi.sourceforge.net/DTD/sodipodi-0.dtd"
   xmlns:inkscape="http://www.inkscape.org/namespaces/inkscape"
   width="210mm"
   height="297mm"
   viewBox="0 0 210 297"
   version="1.1"
   id="svg53"
   inkscape:version="1.0.1 (3bc2e813f5, 2020-09-07)"
   sodipodi:docname="verk4.svg">
  <defs
     id="defs47">
    <inkscape:path-effect
       effect="bspline"
       id="path-effect1241"
       is_visible="true"
       lpeversion="1"
       weight="33.333333"
       steps="2"
       helper_size="0"
       apply_no_weight="true"
       apply_with_weight="true"
       only_selected="false" />
    <clipPath
       clipPathUnits="userSpaceOnUse"
       id="clipPath1201">
      <path
         id="path1203"
         style="fill:#ff0000;fill-opacity:1;fill-rule:nonzero;stroke:none"
         d="M 327.71484,116.57227 V 1061.4531 H 644.85742 V 116.57227 H 478.23047 c -0.0742,0.12153 -0.16723,0.24424 -0.2832,0.36914 -0.37456,0.40355 -0.32207,0.33321 -0.72852,0.85742 -0.10847,0.13978 -0.21808,0.27942 -0.31445,0.42773 -0.13455,0.20684 -0.25715,0.4211 -0.37696,0.63672 -0.24147,0.43448 -0.36117,0.75963 -0.5664,1.24024 -0.0703,0.19102 -0.14026,0.38331 -0.21094,0.57421 -0.0597,0.16125 -0.43197,1.14015 -0.51172,1.41602 -0.25281,0.87451 -0.39569,1.77203 -0.55859,2.66602 -0.21574,1.37452 -0.41863,2.75007 -0.58985,4.13085 -0.0348,0.2811 -0.0559,0.56305 -0.0937,0.84376 -0.0556,0.41388 -0.12513,0.82723 -0.1875,1.24023 -0.19691,1.324 -0.0426,0.34124 -0.32226,1.9375 -0.0431,0.2441 -0.0777,0.48876 -0.12305,0.73242 -0.062,0.33402 -0.13263,0.66646 -0.19726,1 -0.0408,0.21155 -0.0757,0.42376 -0.11914,0.63477 -0.0684,0.33143 -0.14619,0.66163 -0.21876,0.99218 -0.20513,0.9823 -0.0842,0.44994 -0.37109,1.5879 -0.0484,0.19113 -0.0909,0.38444 -0.14453,0.57421 -0.15307,0.54197 -0.22558,0.71669 -0.37109,1.20313 -0.0556,0.18489 -0.10649,0.37122 -0.16016,0.55664 -0.10318,0.39909 -0.18413,0.8123 -0.375,1.18164 -0.0173,0.0337 -0.0326,0.051 -0.0586,0.0977 0.0231,0.96081 -0.007,1.92606 -0.0586,2.89257 0.30604,0.92624 0.59412,1.85803 0.8125,2.8086 0.66388,2.89013 0.32097,5.37283 0.11914,8.2207 -0.0167,0.12173 -0.0334,0.24359 -0.0508,0.36524 0.0176,0.31371 0.0361,0.6277 0.0547,0.9414 0.095,5.42207 -0.53449,8.30898 -3.24414,11.53906 -0.45242,1.35031 -0.88822,2.66081 -1.1582,3.56446 -0.0871,0.65263 -0.20169,1.3801 -0.32422,1.76758 -0.0143,0.0452 -0.0357,0.0879 -0.0508,0.13281 -0.15021,0.97806 -0.30624,1.95593 -0.45899,2.93359 -0.24151,0.88779 -0.55944,1.75697 -0.72461,2.66211 -0.12786,0.70146 0.37479,-1.37681 0.61328,-2.04883 0.014,-0.0394 0.0743,0.0562 0.0781,0.0977 0.0643,0.54473 0.19983,1.09377 0.13672,1.63867 -0.32107,2.77337 -0.70807,5.53855 -1.07227,8.30664 4.6e-4,0.005 0.004,0.0166 0.004,0.0215 0.0658,1.06823 0.10132,2.13798 0.15234,3.20703 0.0249,3.26703 -0.0394,6.53511 -0.0508,9.80273 0.0169,0.96203 0.0121,1.92461 0.0156,2.88672 0.68927,2.08143 1.24058,4.16741 1.31836,6.38281 0.2773,1.09743 0.5447,2.21922 0.73047,3.20313 0.23358,1.23724 0.16476,2.51434 0.16797,3.77344 0.002,0.95595 -0.0839,1.9116 -0.15039,2.86523 -0.007,0.10352 -0.0175,0.16921 -0.0254,0.26562 0.40144,1.18295 0.78131,2.37245 1.07422,3.58594 0.44028,1.81819 0.0941,5.78663 -0.0234,7.7793 -0.10725,0.83836 -0.0646,0.48769 -0.12695,0.96484 0.2337,1.19306 0.59035,3.31499 1.15039,7.03907 0.37077,2.45609 0.12761,5.05615 0.008,7.51757 -0.25587,2.28121 -0.089,4.5445 -0.0625,6.82032 -0.0454,3.34267 0.0151,6.68499 -0.0234,10.02734 0.008,3.99027 0.0183,7.98054 -0.0195,11.9707 0.15202,4.83979 0.0279,9.50076 -0.91406,14.28907 -0.0935,0.47515 -0.22646,0.94077 -0.36719,1.40429 -0.86689,8.26558 -0.2599,3.12594 -0.93945,6.66016 0.0123,-8.4e-4 0.0286,0.0126 0.0488,0.0488 0.20145,0.36019 0.0338,0.8239 0.0527,1.23633 0.78834,4.64186 -0.89958,8.57878 -1.70508,12.88281 -0.0722,0.38593 0.23121,-0.76998 0.47461,-1.07813 0.0805,-0.10015 0.0991,0.24617 0.084,0.37305 -0.2064,1.93419 -0.49501,3.85967 -0.74219,5.78906 -0.27525,1.05151 -0.26327,0.963 -0.46289,1.71289 0.1838,-0.49813 0.31743,-0.72611 0.26172,-0.0527 -0.16596,2.00583 -0.35363,4.01046 -0.60156,6.00781 -0.51383,4.13739 -0.76274,2.22337 -0.50196,3.89844 0.0287,-0.0474 0.0784,-0.19753 0.0859,-0.14258 0.45397,3.16807 -0.21696,7.5868 -0.95703,10.45898 0.0273,0.11462 0.059,0.22941 0.0508,0.34571 -0.17405,2.71539 -0.30431,5.43737 -0.63086,8.13867 -0.48907,4.04696 -1.89899,3.04037 -0.60937,3.88086 0.16667,1.5466 -0.0274,-0.37414 0.14648,2.64453 0.23339,4.04982 0.64303,0.12718 -0.52148,8.86719 -0.5096,3.82437 -1.92944,5.17452 -0.64258,3.86523 0.64448,3.03822 -0.93809,6.34932 -1.33203,9.3418 -0.0374,0.28435 0.20064,-0.97491 0.39453,-0.76367 0.28346,0.30863 0.0907,0.83807 0.0566,1.25586 -0.15644,1.99465 -0.41555,3.97879 -0.62305,5.96875 -0.19861,0.93933 -0.39707,1.87902 -0.5957,2.81836 0.11185,0.14057 0.21573,0.35159 0.20703,0.44921 -0.17099,1.9598 -0.36043,3.9184 -0.61328,5.86914 -0.53798,4.14985 -0.77388,2.09705 -0.46094,4.10352 0.46556,6.4947 -1.93333,12.61257 -3.01953,18.89063 -0.99301,6.20872 -1.75445,12.45218 -2.85156,18.64257 -0.0337,0.50843 -0.0636,1.00458 -0.0391,1.32422 0.21582,2.83506 0.12873,1.73496 0.18165,5.63086 -0.11203,5.89516 -0.0793,11.79178 -0.11329,17.6875 0.19389,3.77836 -0.21252,7.57792 0.0234,11.35352 0.63481,10.13816 0.0525,-3.27861 0.75781,4.99414 0.21548,2.52759 0.29161,5.06511 0.4375,7.59765 -0.0102,7.69894 -0.23097,15.39109 -0.24609,23.0918 0.55865,8.32154 -1.8712,16.44925 -2.39062,24.69531 -0.0673,1.06897 -3.8e-4,2.14181 0,3.21289 0.44231,6.38926 -0.48481,12.88801 -1.54493,19.18165 -0.62116,3.68649 -1.11005,2.37408 -0.43945,3.8789 1.50459,1.70204 0.34238,0.31893 -0.32422,6.39649 -0.1378,1.25605 -0.49524,2.47964 -0.64453,3.73437 -0.0189,0.15776 0.13332,0.29672 0.14844,0.45508 0.13153,1.31013 0.0636,2.63101 0.0937,3.94726 0.44273,4.35504 -0.50379,8.73008 -1.53711,12.9336 -0.2442,0.9933 -0.54037,1.97371 -0.80078,2.96289 -0.17666,0.67083 -0.53622,1.32441 -0.50977,2.01758 0.02,0.52097 0.35399,-0.98039 0.53125,-1.47071 0.0423,-0.085 0.11579,-0.34801 0.12695,-0.2539 0.47743,4.37956 0.21754,8.29113 -0.32421,12.77539 -0.76623,6.34257 -0.93255,2.22923 -0.71485,5.46484 0.28676,4.42662 0.24285,8.41456 -0.39453,12.92188 -0.2039,1.44185 -0.75912,2.81534 -1.01953,4.24804 -0.0567,0.31174 0.26899,-0.57288 0.4043,-0.85937 0.24529,1.01892 0.0304,0.0261 0.1582,2.3418 0.22424,4.07183 0.57026,0.72059 -0.51367,8.93554 -0.52229,3.95857 -2.04867,5.0325 -0.65039,3.97461 0.32239,3.31015 0.43534,6.66204 0.37109,9.99414 -0.0103,0.46489 -0.009,0.67745 -0.0137,1.08594 2.6e-4,0.062 0.004,0.1214 0.004,0.18359 3.4e-4,0.25467 0.002,0.50894 0.002,0.76368 -0.005,1.1e-4 -0.0103,-1.1e-4 -0.0156,0 -0.0415,7.51748 0.0698,3.96166 -16.80859,1.34179 -21.79943,3.12835 -26.65781,9.62017 -26.59375,-1.77148 v -0.0176 l 0.002,-0.35352 c 0.004,-0.73361 0.0224,-1.45161 0.0508,-2.16015 0.0504,-4.35814 -0.51045,-8.70987 -0.13086,-13.06836 0.2665,-2.06789 0.49307,-4.14068 0.79883,-6.20313 0.008,-0.0544 0.0675,0.0874 0.10157,0.13086 0.079,0.4289 0.15928,0.85626 0.23828,1.28516 0.0703,-0.87337 -0.0969,-1.74947 -0.13086,-2.625 -0.19843,-5.0267 -0.18102,-3.20153 0.01,-7.97852 0.32307,-2.24345 0.61839,-4.49113 0.96875,-6.73047 0.0378,-0.23438 -0.0405,0.47397 -0.0254,0.71094 0.0438,0.73497 0.11689,2.93064 0.20117,2.19922 0.1028,-0.88857 -0.11247,-1.78399 -0.14648,-2.67773 -0.20107,-5.04771 -0.15298,-3.69563 -0.0254,-8.70313 0.22975,-2.42891 0.40215,-4.86405 0.6875,-7.28711 0.0355,-0.29949 -0.0253,-0.79978 0.26953,-0.86328 0.25852,-0.0561 0.26103,1.006 0.29883,0.74219 0.0945,-0.67994 -0.0711,-1.37156 -0.11524,-2.05664 -0.34046,-5.29935 -0.1588,-1.03411 -0.33984,-7.46289 0.55759,-5.21741 0.69979,-7.94324 2.11133,-12.53907 0.0283,-0.0967 0.0398,0.19786 0.0625,0.29688 0.068,0.44659 0.13352,0.89325 0.20117,1.33984 0.0854,-0.83213 -0.0537,-1.67174 -0.0801,-2.50781 -0.12125,-4.77664 0.0421,-9.24561 0.54297,-14.02539 0.008,-0.0719 0.15636,0.12065 0.29492,0.32227 0.0392,-1.34143 -0.0443,-2.68529 -0.0625,-4.02735 0.17919,-2.20864 0.28925,-4.42323 0.53907,-6.625 0.0777,-0.6856 0.3175,-1.34302 0.44336,-2.02148 0.81564,-4.401 1.39415,-8.85483 1.0332,-13.33985 0.0873,-2.46145 0.0886,-4.92593 0.26172,-7.38281 0.45234,-6.41552 2.24751,-12.72389 2.09179,-19.17187 -0.10741,-7.12199 0.0708,-14.22698 0.31836,-21.34375 -0.12763,-5.88299 0.11713,-0.17171 -0.67578,-7.48438 -0.66637,-6.16033 -0.7719,-12.21657 -0.63281,-18.4043 -0.059,-5.78258 -0.0748,-11.56596 0.0469,-17.34765 -0.001,-4.88432 -1.02735,-9.8328 0.50196,-14.62305 1.21335,-6.44765 1.80927,-12.99372 2.99804,-19.44726 0.32897,-1.6879 0.62501,-3.38321 0.98633,-5.06446 0.251,-1.16742 0.58922,-2.31413 0.90821,-3.46484 0.11713,-0.42301 0.3527,-0.43628 0.38671,-0.96484 0.0801,-1.25148 0.0358,-2.50783 0.0547,-3.76172 0.17371,-2.15535 0.30183,-4.3135 0.51953,-6.46485 0.031,-0.30527 0.11954,-0.60437 0.22461,-0.89257 0.0367,-0.10054 0.18789,-0.1489 0.19531,-0.25586 0.68489,-9.38902 -1.06744,4.42932 0.85157,-9.84766 0.0265,-0.20488 -0.004,0.41244 -0.006,0.61914 1.14814,1.02161 -0.0345,0.0546 0.23047,-3.62305 0.17661,-2.45261 0.48726,-4.89406 0.75976,-7.33789 0.0321,-0.28696 0.12186,1.14321 0.14453,0.85547 0.10281,-1.22771 0.0938,-2.46224 0.14063,-3.69336 0.27367,-2.09899 0.50888,-4.20317 0.82031,-6.29687 0.01,-0.0645 0.0615,0.11401 0.0918,0.17187 0.0767,0.50083 0.15375,1.00308 0.23047,1.50391 0.0775,-0.85937 -0.0988,-1.72375 -0.13282,-2.58594 -0.19729,-4.92015 -0.16933,-3.22041 -0.008,-7.9082 0.253,-2.11822 0.46377,-4.24255 0.75781,-6.35547 0.0234,-0.1675 0.15739,-0.63437 0.19141,-0.46875 0.1731,0.83876 0.063,1.71871 0.24023,2.55664 0.15497,0.7335 -0.13263,-1.49362 -0.17382,-2.24219 -0.24567,-4.45909 -0.17596,-3.18895 0.0918,-7.99219 0.28775,-0.74873 0.60186,-1.48895 0.91211,-2.23046 -0.11906,-2.36791 -0.10886,-2.17479 -0.0137,-5.58008 0.16124,-1.61485 0.2852,-3.23511 0.48438,-4.84571 0.0667,-0.53898 0.42509,-1.02061 0.46289,-1.5625 0.15041,-2.24869 0.17797,-3.24758 0.15039,-3.58593 -0.66486,4.00972 -0.0845,-1.03579 0,0 0.16361,-0.98672 0.42305,-2.69856 0.76953,-5.05274 -0.002,-0.33455 -0.004,-0.71868 -0.01,-0.92383 0.0435,-0.20421 0.11839,-0.58251 0.18555,-0.91992 0.16311,-3.8761 -0.6782,2.32583 0.99805,-8.42578 -0.0898,-1.81476 -0.16851,-3.24304 0.0254,-5.30273 0.14929,-1.58653 0.39508,-3.16257 0.63281,-4.73828 0.011,-0.0718 0.0924,-0.25784 0.11133,-0.1875 0.0835,0.31904 0.0679,1.3127 0.0937,0.98437 0.10998,-1.30727 0.10344,-2.62271 0.15429,-3.93359 0.38128,-2.04122 0.75724,-4.08261 1.14258,-6.12305 4.8e-4,-6.39603 -0.0428,0.36419 -0.002,-5.1875 -0.034,-3.97431 -0.0208,-7.94941 -0.0234,-11.92383 -0.0423,-3.20906 0.0457,-6.41748 0.0117,-9.62695 -0.0253,-3.18095 -0.21723,-6.37244 0.1543,-9.54492 0.0159,-0.26275 -0.0939,-0.75409 -0.0859,-1.03125 -0.99161,-4.20026 -1.14738,-4.29416 -1.08398,-6.92383 -0.0353,-2.75491 -0.007,-5.41535 0.1582,-8.14258 -0.51724,-2.16871 -0.85149,-4.38674 -1.23242,-6.58398 -0.10394,-0.60933 0.01,-1.23708 0.0176,-1.85547 0.11401,-2.37701 0.10276,-2.29828 0.11523,-2.71094 -0.19097,-1.26798 -0.38524,-2.53506 -0.57812,-3.80273 -1.58343,-4.57846 -1.60435,-3.91537 -1.53907,-7.19727 0.004,-1.85476 0.0194,-3.70962 0.0156,-5.56445 -0.028,-2.77979 -0.004,-5.55961 0.082,-8.33789 0.0416,-1.30826 0.007,0.33789 -0.16992,-2.56446 -0.14665,-2.4025 -0.3442,-5.43609 0.13281,-7.79882 0.22517,-1.11538 0.52985,-2.21195 0.84961,-3.30469 -0.10286,-3.8639 0.0741,-7.76347 1.01367,-11.32617 -0.048,0.80953 -0.25634,3.23064 -0.14258,2.42773 1.03734,-7.31267 -0.14053,-3.12316 1.00196,-6.19922 0.0171,-1.60027 0.24752,-3.23091 0.94336,-5.10547 0.43862,-1.1821 1.04288,-2.28698 1.68359,-3.375 0.25116,-0.75909 0.51193,-1.54278 0.64844,-2.04883 0.0381,-0.0488 0.0789,-0.0958 0.11718,-0.14453 0.006,-0.0965 0.0153,-0.19624 0.0215,-0.29297 l -1.13477,-4.65234 c 0.004,-2.4e-4 0.003,-0.002 0.006,-0.002 0.007,0.0867 -0.007,-0.13875 -0.004,-0.0996 -0.44992,-0.91488 -0.77636,-1.68349 -1.04297,-2.38867 -0.35525,-0.50447 -0.75107,-1.062 -0.96289,-1.36719 -1.13401,-1.63386 -2.23562,-3.2914 -3.2793,-4.98438 -0.44149,-0.71613 -0.77965,-1.49104 -1.16992,-2.23632 -0.40577,-0.75669 -0.92603,-1.46472 -1.30078,-2.23438 -1.71463,-1.73591 -5.8914,-5.91094 -7.03907,-7.05859 h -0.0156 c -3.63166,-3.63166 -6.35425,-7.27751 -8.31836,-10.83203 z m 95.97266,191.74804 c -0.0108,0.25535 -0.0439,0.73092 -0.0645,1.08203 0.12202,-0.83542 0.20107,-1.34084 0.34765,-2.36523 0.0768,-0.53671 -0.10881,0.40703 -0.2832,1.2832 z m -0.0645,1.08203 c -0.0393,0.26902 -0.0745,0.51114 -0.11133,0.76172 0.003,0.48167 0.009,0.87282 0.0312,0.57813 0.0429,-0.59416 0.0551,-0.9128 0.0801,-1.33985 z m 43.82422,-135.69726 c 0.0816,-0.53129 0.16391,-1.06287 0.24804,-1.59375 -0.0492,0.0588 -0.10217,0.11558 -0.15234,0.17383 -0.0884,0.62999 -0.1891,1.27579 -0.29883,1.9375 0.0686,-0.17216 0.1443,-0.34199 0.20313,-0.51758 z m 0.0957,-1.41992 c 0.002,-0.0137 0.004,-0.0273 0.006,-0.041 -0.006,0.0177 -0.0119,0.0351 -0.0176,0.0527 z m 0.006,-0.041 c 0.0799,-0.25249 0.17067,-0.50159 0.24414,-0.75586 0.0177,-0.10986 0.0328,-0.22024 0.0508,-0.33008 -0.07,0.1516 -0.13342,0.30627 -0.20898,0.45508 -0.0273,0.20713 -0.0564,0.41989 -0.0859,0.63086 z m 0.0859,-0.63086 c 0.0738,-0.56028 0.12279,-1.06141 0.18164,-1.5918 -0.2893,0.94917 -0.57162,1.90201 -0.88868,2.83985 0.25092,-0.40824 0.49094,-0.82246 0.70704,-1.24805 z m 0.18164,-1.5918 c 0.0751,-0.24624 0.15382,-0.49083 0.23047,-0.73632 -0.056,0.0589 -0.11641,0.11837 -0.17383,0.17773 -0.0195,0.18821 -0.0353,0.36621 -0.0566,0.55859 z m 0.23047,-0.73632 c 0.1296,-0.13655 0.27609,-0.27756 0.39843,-0.41211 0.1275,-0.59555 0.24412,-1.19379 0.35157,-1.79493 -0.27331,0.72538 -0.51792,1.46316 -0.75,2.20704 z m 0.75,-2.20704 c 0.066,-0.17514 0.13909,-0.34787 0.20898,-0.52148 0.0143,-0.25165 0.0217,-0.50368 0.0234,-0.75391 -0.0128,0.0372 -0.0263,0.0742 -0.0391,0.11133 -0.063,0.38839 -0.12442,0.77757 -0.19335,1.16406 z m 0.19335,-1.16406 c 0.0131,-0.0808 0.0281,-0.16149 0.041,-0.24218 -10e-4,-1.17725 -0.11417,-2.35692 -0.21094,-3.66993 -0.87828,-4.87084 -0.128,-0.85748 -0.90234,7.02344 0.35734,-1.03708 0.71577,-2.07401 1.07226,-3.11133 z m 0.041,-0.24218 c 4e-5,0.0436 -0.002,0.0873 -0.002,0.13085 0.71818,-2.09355 1.40441,-4.19609 1.93164,-6.34375 0.2335,-0.95076 -0.11481,-1.95503 -0.20703,-2.92968 -0.0253,-0.26906 -0.0902,-1.06317 -0.14649,-0.79883 -0.69501,3.26995 -1.04867,6.63017 -1.57617,9.94141 z m -0.0254,0.88476 c -0.0363,0.64052 -0.1183,1.29226 -0.26758,1.9707 0.0836,-0.0959 0.1623,-0.19187 0.24219,-0.28711 0.86367,-2.57774 1.67179,-5.02283 0.89258,-3.57812 -0.33068,0.61308 -0.60765,1.24986 -0.86719,1.89453 z m -9.29492,-49.98437 c 0.004,0.008 0.01,0.0172 0.0137,0.0254 0.36733,0.68577 0.68683,1.39845 1.10156,2.05664 0.0454,0.0721 1.16905,1.26743 1.23633,1.35742 0.20956,0.28018 0.40638,0.56976 0.61133,0.85351 0.035,-0.10724 0.0699,-0.21438 0.10937,-0.32031 0.0639,-0.1739 0.12786,-0.33644 0.22461,-0.49609 0.11078,-0.18268 0.26704,-0.33673 0.40235,-0.5 0.30145,-0.36311 0.61793,-0.55577 0.90625,-0.61719 0.32695,-0.0696 0.61072,0.0336 0.79297,0.24024 0.11123,-0.0324 0.22888,-0.0467 0.3496,-0.0234 0.14351,0.0276 0.28565,0.11021 0.42188,0.22265 0.13119,-0.86104 0.60887,-1.25873 1.05469,-1.20898 0.16249,0.0181 0.31034,0.11491 0.44336,0.24609 0.22553,-0.22773 0.45863,-0.36529 0.68164,-0.41992 0.1292,-0.92544 0.64929,-1.327 1.11328,-1.26367 0.32373,0.0442 0.60809,0.32775 0.72265,0.80273 0.14657,-0.23114 0.35287,-0.37052 0.57618,-0.39843 0.28144,-0.0352 0.57417,0.11771 0.79687,0.42773 -0.0589,-0.40977 -0.01,-0.73824 0.10547,-0.98437 z m 15.44922,0 c 0.0849,0.17089 0.13777,0.38425 0.16015,0.63476 0.0241,-0.0393 0.045,-0.0805 0.0703,-0.11914 0.10697,-0.16332 0.23566,-0.31274 0.35547,-0.4668 0.0236,-0.0304 0.0161,-0.0217 0.0371,-0.0488 z m -47.05274,16.57226 c -0.86548,-0.17199 -0.3308,8.71379 -0.6582,12.02539 0.11514,0.31659 0.23603,0.6315 0.35351,0.94727 0.009,-1.35545 0.12724,-2.67542 0.28321,-3.9961 0.005,-0.2121 0.0106,-0.42516 0.0137,-0.63671 0.0835,-0.52278 0.31841,-2.09328 0.25,-1.56836 -0.0999,0.76484 -0.17788,1.47858 -0.26367,2.20507 -0.0393,1.71171 -0.10666,3.43168 0.13281,5.11719 0.48227,1.28558 0.96267,2.57128 1.39258,3.875 0.0393,0.1193 0.0543,0.18217 0.0488,0.19727 0.0355,0.058 0.0731,0.11445 0.10937,0.17187 0.0144,-0.0353 0.0244,-0.0723 0.0391,-0.10742 0.0629,-0.15052 0.20677,-0.37377 0.33203,-0.58008 0.22293,-0.66125 0.43331,-1.32557 0.6504,-1.98828 -0.39303,-5.10685 -0.22598,-10.34307 -2.21875,-14.99023 -0.18735,-0.43692 -0.34121,-0.64731 -0.46485,-0.67188 z m 2.0332,17.65039 c -0.0829,0.24603 -0.16518,0.49223 -0.24804,0.73828 0.26902,-0.32886 0.53327,-0.66111 0.80469,-0.98828 0.0585,-0.21829 0.11354,-0.4373 0.17773,-0.6543 -0.005,-0.0531 -0.007,-0.10697 -0.0117,-0.16015 -0.26794,0.3561 -0.50839,0.71204 -0.72266,1.06445 z m 0.73438,-0.9043 c 0.0127,0.13195 0.0214,0.26481 0.0352,0.39649 0.0532,-0.0641 0.10699,-0.12735 0.16015,-0.19141 0.20181,-0.36718 0.39482,-0.73811 0.57617,-1.11523 0.23087,-0.48008 -0.18914,-0.0323 -0.69336,0.625 -0.0291,0.0944 -0.0501,0.1907 -0.0781,0.28515 z m 0.0352,0.39649 c -0.0712,0.0858 -0.14169,0.17198 -0.21289,0.25781 -0.0331,0.12371 -0.0682,0.24699 -0.0996,0.3711 0.10842,-0.18431 0.21743,-0.36862 0.32226,-0.55469 -0.003,-0.0248 -0.007,-0.0494 -0.01,-0.0742 z m -1.01758,1.24609 c -0.017,0.0208 -0.0338,0.0417 -0.0508,0.0625 0.007,0.0103 0.0128,0.0209 0.0195,0.0312 0.0105,-0.0312 0.0208,-0.0625 0.0312,-0.0937 z m -0.0508,0.0625 c -0.0243,-0.0376 -0.0483,-0.0754 -0.0723,-0.11328 -0.0496,0.12178 -0.0888,0.24771 -0.13476,0.3711 0.0694,-0.0856 0.1373,-0.17245 0.20703,-0.25782 z m 40.08008,-17.53125 c -0.10418,0.54536 -0.14577,0.71317 -0.17774,0.86328 0.13139,-0.0569 0.27089,-0.0858 0.41406,-0.0605 0.0115,-0.2247 0.0196,-0.4493 0.0312,-0.67383 -0.0893,-0.044 -0.17975,-0.0855 -0.26757,-0.12891 z m -49.24024,1.01172 c 0.12222,0.19579 0.24565,0.39175 0.33984,0.50781 0.2987,0.368 1.32354,1.34577 1.04688,0.96094 -0.39328,-0.54701 -0.90946,-0.99208 -1.38672,-1.46875 z m 23.53516,3.00586 c -1.92819,1.71652 -3.61893,3.65478 -5.19727,5.69727 1.98685,-0.73529 3.96222,-1.49068 5.9043,-2.30664 -0.0203,-0.0733 -0.0451,-0.14549 -0.0644,-0.21875 -0.006,-0.0207 -0.01,-0.0418 -0.0156,-0.0625 -0.10314,0.05 -0.20955,0.0906 -0.31641,0.13086 -0.073,0.0366 -0.14482,0.0771 -0.21875,0.11132 -0.005,-0.008 -0.005,-0.012 -0.0117,-0.0254 -0.0747,0.0207 -0.0837,-0.0761 -0.0859,-0.18164 -0.008,-0.001 0.085,0.21703 -0.0742,-0.15429 -0.0367,-0.0857 -0.0648,-0.32395 -0.0762,-0.39844 -0.0586,-0.36636 -0.006,-0.73892 -0.0137,-1.10742 -0.007,-0.41888 0.0964,-0.72718 0.24414,-0.95899 -0.0207,-0.17575 -0.0477,-0.35052 -0.0742,-0.52539 z m 1.89453,2.72461 c -8.9e-4,0.008 -0.003,0.0173 -0.004,0.0254 -0.003,0.0344 -0.005,0.0691 -0.002,0.10352 0,0.011 0.01,-0.0207 0.008,-0.0312 -0.004,-0.0249 -0.002,-0.0629 -0.002,-0.0977 z m 25.22656,0.26367 c 0.005,0.12537 0.007,0.25141 0.01,0.37696 0.0297,-0.0628 0.057,-0.12643 0.0859,-0.18946 -0.0472,-0.0875 -0.0689,-0.13227 -0.0957,-0.1875 z m -45.6543,1.34766 c -0.0627,-0.1592 0.11166,0.3228 0.16797,0.48437 0.10802,0.25207 0.20578,0.50912 0.3086,0.76368 -0.17185,-0.45316 -0.20616,-0.56233 -0.47657,-1.24805 z m 9.45899,2.1543 c -0.0136,-0.008 -0.037,-0.006 -0.0684,0.006 -0.20543,0.08 -0.77127,0.58336 -1.41992,1.25586 0.33673,-0.13581 0.67311,-0.27185 1.01172,-0.40429 0.10643,-0.15857 0.21699,-0.31384 0.32031,-0.47461 0.15339,-0.23869 0.19712,-0.35826 0.15625,-0.38281 z m -5.89453,6.00195 c 0.062,0.12191 0.10735,0.24605 0.17578,0.36719 0.0267,0.0473 0.0606,0.0898 0.0879,0.13671 -0.07,-0.12616 -0.1561,-0.28894 -0.26367,-0.5039 z m 42.90429,5.3164 c -0.073,0.50712 -0.14858,1.0145 -0.20703,1.52344 -0.0563,0.4894 0.17044,-0.97179 0.20899,-1.46289 0.001,-0.0134 -0.003,-0.0453 -0.002,-0.0605 z m -4.43554,13.73438 c -0.89006,0.90602 -1.93346,1.86648 -3.17969,2.93555 0.84936,-0.31006 1.69201,-0.63295 2.52148,-0.97852 0.21077,-0.65475 0.43596,-1.30553 0.65821,-1.95703 z m 0.22265,1.32617 c -0.006,0.0144 -0.0131,0.0286 -0.0195,0.043 -0.002,0.0198 -0.006,0.0395 -0.008,0.0606 0.009,-0.0344 0.018,-0.0691 0.0273,-0.10352 z m -42.98828,3.00977 c -0.005,-0.0752 -0.60149,1.91525 -0.83398,2.63476 -0.006,0.13657 -0.008,0.27353 -0.0137,0.41016 0.28563,-0.95479 0.5694,-1.91105 0.81054,-2.87695 0.0262,-0.10481 0.0379,-0.15723 0.0371,-0.16797 z m 39.05469,22.99609 c -0.002,0.004 0.002,0.0178 0.01,0.0449 0.15342,0.50779 0.31852,1.0053 0.48633,1.50196 -0.0671,-0.3046 -0.11888,-0.57033 -0.1914,-0.88868 -0.0443,-0.19354 -0.28866,-0.68404 -0.30469,-0.6582 z m 2.14258,7.79688 v 0.0156 c -0.0735,-0.2014 0.43358,1.49366 1.01758,3.69336 -0.01,-0.20164 -0.0188,-0.50877 -0.0293,-0.6543 -0.6078,-1.87718 -0.89046,-2.76008 -0.98828,-3.05468 z m -42.11133,6.78515 c -0.0775,-0.49953 0.037,1.0266 0.20898,1.50196 0.009,0.025 0.0202,0.0493 0.0293,0.0742 -0.0801,-0.52534 -0.15666,-1.05104 -0.23828,-1.57617 z m 41.56641,0.17188 c -0.0151,0.0214 -0.004,0.10316 0.0351,0.25976 0.57287,2.26275 1.39524,4.45559 2.17188,6.66016 -0.1294,-1.08915 -0.29216,-2.21621 -0.53125,-3.14648 -0.28144,-1.09525 -1.57034,-3.92318 -1.67578,-3.77344 z m 2.44531,9.25 c -0.058,0.41302 -0.0706,0.50182 0.0156,0.19922 -0.005,-0.0693 -0.009,-0.11855 -0.0156,-0.19922 z m -41.97266,5.69726 c 0.0265,-0.32589 -0.0457,0.65235 -0.0684,0.97852 9.5e-4,0.004 0.003,0.008 0.004,0.0117 0.0225,-0.33051 0.0373,-0.65697 0.0645,-0.99024 z m 42.82227,6.97266 c -0.0113,0.0789 -0.037,0.3656 0.006,0.084 -0.003,-0.0291 -0.003,-0.055 -0.006,-0.084 z m -42.05078,47.03711 c -0.17868,0.97767 -0.60737,3.43194 -0.0234,2.26172 0.16668,-0.68624 0.0233,-1.4132 0.0234,-2.11914 8e-5,-0.15919 -4e-5,0.003 0,-0.14258 z m 41.98046,10.59765 c -0.279,0.89884 -0.59871,1.7881 -0.82421,2.70118 -0.199,0.80521 0.51328,-1.5764 0.76953,-2.36524 0.018,-0.11197 0.0267,-0.14932 0.0547,-0.33594 z m -0.92773,6.69922 c -0.0812,0.43028 -0.16366,0.8652 -0.28516,1.58008 -0.0469,0.27627 0.19533,-0.52673 0.25391,-0.80078 0.0386,-0.18086 0.0226,-0.5479 0.0312,-0.7793 z m -43.20117,2.24219 c -6.3e-4,0.0412 -10e-4,0.0547 0,0.082 0.007,0.15621 0.0159,0.31258 0.0234,0.46875 -0.009,-0.20844 -0.0139,-0.35566 -0.0234,-0.55078 z m 0.91211,19.83789 c -0.21433,-0.28188 -2.64227,4.61832 -3.18945,6.53516 -0.31063,1.08721 -0.38254,2.2161 -0.41407,3.35351 1.31702,-3.0995 2.7013,-6.17686 3.54688,-9.42773 0.0717,-0.27561 0.0873,-0.42067 0.0566,-0.46094 z m 27.05273,114.58985 c -0.12499,0.58268 -0.25756,1.16401 -0.35351,1.75195 -0.0869,0.5317 0.31767,-1.03872 0.35547,-1.57617 0.004,-0.0571 -0.002,-0.11741 -0.002,-0.17578 z" />
    </clipPath>
  </defs>
  <sodipodi:namedview
     id="base"
     pagecolor="#ffffff"
     bordercolor="#666666"
     borderopacity="1.0"
     inkscape:pageopacity="0.0"
     inkscape:pageshadow="2"
     inkscape:zoom="0.70710678"
     inkscape:cx="1239.1395"
     inkscape:cy="584.40235"
     inkscape:document-units="mm"
     inkscape:current-layer="layer1"
     inkscape:document-rotation="0"
     showgrid="false"
     inkscape:window-width="1920"
     inkscape:window-height="1057"
     inkscape:window-x="-8"
     inkscape:window-y="-8"
     inkscape:window-maximized="1" />
  <metadata
     id="metadata50">
    <rdf:RDF>
      <cc:Work
         rdf:about="">
        <dc:format>image/svg+xml</dc:format>
        <dc:type
           rdf:resource="http://purl.org/dc/dcmitype/StillImage" />
        <dc:title></dc:title>
      </cc:Work>
    </rdf:RDF>
  </metadata>
  <g
     inkscape:label="Layer 1"
     inkscape:groupmode="layer"
     id="layer1">
    <circle
       style="fill:#00ff00;stroke-width:0.0630169"
       id="path1215"
       cx="67.286865"
       cy="35.462666"
       r="24.819664" />
    <text
       xml:space="preserve"
       style="font-style:normal;font-weight:normal;font-size:19.5239px;line-height:1.25;font-family:sans-serif;fill:#000000;fill-opacity:1;stroke:none;stroke-width:0.4881"
       x="41.858665"
       y="76.409904"
       id="text1221"><tspan
         sodipodi:role="line"
         id="tspan1219"
         x="41.858665"
         y="76.409904"
         style="stroke-width:0.4881">Andri</tspan></text>
    <text
       xml:space="preserve"
       style="font-style:normal;font-weight:normal;font-size:10.5833px;line-height:1.25;font-family:sans-serif;fill:#000000;fill-opacity:1;stroke:none;stroke-width:0.264583"
       x="72.495834"
       y="263.52499"
       id="text1225"><tspan
         sodipodi:role="line"
         id="tspan1223"
         x="72.495834"
         y="263.52499"
         style="stroke-width:0.264583" /></text>
    <rect
       style="fill:#800000;stroke-width:0.0519903"
       id="rect1229"
       width="4.963933"
       height="9.927866"
       x="73.774612"
       y="17.215139" />
    <rect
       style="fill:#800000;stroke-width:0.0519903"
       id="rect1233"
       width="4.963933"
       height="9.927866"
       x="55.387402"
       y="17.215139" />
    <circle
       style="fill:#800000;stroke-width:0.0328342"
       id="path1243"
       cx="67.068001"
       cy="46.18272"
       r="6.204916" />
    <rect
       style="fill:#ff0000;stroke-width:0.163015"
       id="rect1245"
       width="115"
       height="170"
       x="220.51967"
       y="36.669376" />
    <rect
       style="fill:#0000ff;stroke-width:0.0556403"
       id="rect1266"
       width="2"
       height="170"
       x="275.55304"
       y="36.669376" />
    <rect
       style="fill:#0000ff;stroke-width:0.121757"
       id="rect1268"
       width="55"
       height="2"
       x="220.51967"
       y="116.04436" />
    <rect
       style="fill:#0000ff;stroke-width:0.121757"
       id="rect1270"
       width="55"
       height="2"
       x="220.51967"
       y="154.14436" />
  </g>
</svg>
